<svg width="23" height="24" viewBox="0 0 23 24" fill="none" xmlns="http://www.w3.org/2000/svg">
<path d="M21.0833 0H1.91667C1.40834 0 0.920823 0.201934 0.561379 0.561379C0.201934 0.920823 0 1.40834 0 1.91667V8.94844C0 19.6578 9.08021 23.2156 10.901 23.8146C11.2901 23.9426 11.7099 23.9426 12.099 23.8146C13.9198 23.2156 23 19.6578 23 8.94844V1.91667C23 1.40834 22.7981 0.920823 22.4386 0.561379C22.0792 0.201934 21.5917 0 21.0833 0ZM11.5 21.9937C9.97865 21.4906 2.83906 18.6875 2.00052 10.5417H11.5V1.91667H21.0833V8.94844C21.0862 9.48069 21.0582 10.0127 20.9995 10.5417H11.5V21.9937Z" fill="#666666"/>
</svg>
