<svg width="29" height="30" viewBox="0 0 29 30" fill="none" xmlns="http://www.w3.org/2000/svg">
<path d="M26.1 26.5402V10.2147L14.5 3.00435L2.9 10.2147V26.5402H8.70001V22.4092C8.70001 20.8157 9.31108 19.2873 10.3988 18.1605C11.4865 17.0337 12.9618 16.4006 14.5 16.4006C16.0383 16.4006 17.5135 17.0337 18.6012 18.1605C19.6889 19.2873 20.3 20.8157 20.3 22.4092V26.5402H26.1ZM17.4 29.5445V22.4092C17.4 21.6124 17.0945 20.8483 16.5506 20.2849C16.0068 19.7215 15.2691 19.4049 14.5 19.4049C13.7309 19.4049 12.9933 19.7215 12.4494 20.2849C11.9055 20.8483 11.6 21.6124 11.6 22.4092V29.5445H2.9C2.13087 29.5445 1.39325 29.228 0.849391 28.6646C0.305535 28.1011 1.34255e-10 27.337 1.34254e-10 26.5402V10.2147C-4.81798e-06 9.69591 0.129675 9.18594 0.37641 8.73448C0.623146 8.28301 0.978528 7.90543 1.40795 7.63851L13.008 0.428144C13.4587 0.147989 13.9744 0 14.5 0C15.0256 0 15.5414 0.147989 15.9921 0.428144L27.5921 7.63851C28.0215 7.90543 28.3769 8.28301 28.6236 8.73448C28.8703 9.18594 29 9.69591 29 10.2147V26.5402C29 27.337 28.6945 28.1011 28.1506 28.6646C27.6068 29.228 26.8691 29.5445 26.1 29.5445H17.4Z" fill="#AAAAAA"/>
</svg>
