<svg width="20" height="20" viewBox="0 0 20 20" fill="none" xmlns="http://www.w3.org/2000/svg">
<path fill-rule="evenodd" clip-rule="evenodd" d="M9.99999 20C15.5228 20 20 15.5228 20 9.99999C20 4.47715 15.5228 0 9.99999 0C4.47715 0 0 4.47715 0 9.99999C0 15.5228 4.47715 20 9.99999 20ZM11.25 6.25C11.25 5.55964 10.6903 5 9.99999 5C9.30964 5 8.74999 5.55964 8.74999 6.25V8.74999H6.25C5.55964 8.74999 5 9.30964 5 9.99999C5 10.6903 5.55964 11.25 6.25 11.25H8.74999V13.75C8.74999 14.4403 9.30964 15 9.99999 15C10.6903 15 11.25 14.4403 11.25 13.75V11.25H13.75C14.4403 11.25 15 10.6903 15 9.99999C15 9.30964 14.4403 8.74999 13.75 8.74999H11.25V6.25Z" fill="#666666"/>
</svg>
