<svg width="25" height="24" viewBox="0 0 25 24" fill="none" xmlns="http://www.w3.org/2000/svg">
<path d="M24.8666 22.3867C23.0899 19.326 20.246 17.0288 16.8801 15.9356C18.4934 14.9762 19.7472 13.5137 20.4487 11.7726C21.1502 10.0316 21.2608 8.10841 20.7633 6.29848C20.2658 4.48856 19.1878 2.89202 17.695 1.75415C16.2022 0.616275 14.377 0 12.5 0C10.6229 0 8.79781 0.616275 7.30497 1.75415C5.81214 2.89202 4.73418 4.48856 4.2367 6.29848C3.73922 8.10841 3.84973 10.0316 4.55127 11.7726C5.2528 13.5137 6.50654 14.9762 8.11989 15.9356C4.754 17.0288 1.91008 19.326 0.133365 22.3867C0.046134 22.5302 0 22.6949 0 22.8628C0 23.0307 0.046134 23.1954 0.133365 23.3389C0.21475 23.4848 0.334003 23.6061 0.478547 23.6898C0.62309 23.7736 0.787568 23.8169 0.954633 23.815H24.0453C24.2124 23.8169 24.3769 23.7736 24.5214 23.6898C24.666 23.6061 24.7852 23.4848 24.8666 23.3389C24.9538 23.1954 25 23.0307 25 22.8628C25 22.6949 24.9538 22.5302 24.8666 22.3867V22.3867Z" fill="#666666"/>
</svg>
