<svg width="35" height="36" viewBox="0 0 35 36" fill="none" xmlns="http://www.w3.org/2000/svg">
<path d="M5.42969 9V27C5.42969 27.5967 5.65851 28.169 6.06581 28.591C6.47312 29.0129 7.02555 29.25 7.60156 29.25H29.3203C29.6083 29.25 29.8845 29.1315 30.0882 28.9205C30.2918 28.7095 30.4062 28.4234 30.4062 28.125V12.375C30.4062 12.0766 30.2918 11.7905 30.0882 11.5795C29.8845 11.3685 29.6083 11.25 29.3203 11.25H7.60156C7.02555 11.25 6.47312 11.0129 6.06581 10.591C5.65851 10.169 5.42969 9.59674 5.42969 9ZM5.42969 9C5.42969 8.40326 5.65851 7.83097 6.06581 7.40901C6.47312 6.98705 7.02555 6.75 7.60156 6.75H26.0625" stroke="#AAAAAA" stroke-width="1.6875" stroke-linecap="round" stroke-linejoin="round"/>
<path d="M24.4336 21.9375C25.3332 21.9375 26.0625 21.182 26.0625 20.25C26.0625 19.318 25.3332 18.5625 24.4336 18.5625C23.534 18.5625 22.8047 19.318 22.8047 20.25C22.8047 21.182 23.534 21.9375 24.4336 21.9375Z" fill="#AAAAAA"/>
</svg>
