<svg width="24" height="24" viewBox="0 0 24 24" fill="none" xmlns="http://www.w3.org/2000/svg">
<rect width="24" height="24" rx="12" transform="matrix(1 0 0 -1 0 24)" fill="white" fill-opacity="0.15"/>
<path fill-rule="evenodd" clip-rule="evenodd" d="M8.22675 10.1483C8.279 10.2006 8.34107 10.2422 8.40941 10.2706C8.47775 10.2989 8.55101 10.3135 8.625 10.3135C8.69899 10.3135 8.77225 10.2989 8.84059 10.2706C8.90892 10.2422 8.971 10.2006 9.02325 10.1483L12 7.17038L14.9767 10.1483C15.0824 10.2539 15.2256 10.3132 15.375 10.3132C15.5244 10.3132 15.6676 10.2539 15.7732 10.1483C15.8789 10.0426 15.9382 9.89937 15.9382 9.75C15.9382 9.60063 15.8789 9.45737 15.7732 9.35175L12.3982 5.97675C12.346 5.92437 12.2839 5.88281 12.2156 5.85445C12.1472 5.82609 12.074 5.8115 12 5.8115C11.926 5.8115 11.8527 5.82609 11.7844 5.85445C11.7161 5.88281 11.654 5.92437 11.6017 5.97675L8.22675 9.35175C8.17436 9.404 8.1328 9.46608 8.10445 9.53441C8.07609 9.60275 8.06149 9.67601 8.06149 9.75C8.06149 9.82399 8.07609 9.89725 8.10445 9.96559C8.1328 10.0339 8.17436 10.096 8.22675 10.1483Z" fill="white"/>
<path fill-rule="evenodd" clip-rule="evenodd" d="M12 18.1875C12.1492 18.1875 12.2923 18.1282 12.3977 18.0227C12.5032 17.9173 12.5625 17.7742 12.5625 17.625V7.5C12.5625 7.35082 12.5032 7.20774 12.3977 7.10225C12.2923 6.99676 12.1492 6.9375 12 6.9375C11.8508 6.9375 11.7077 6.99676 11.6023 7.10225C11.4968 7.20774 11.4375 7.35082 11.4375 7.5V17.625C11.4375 17.7742 11.4968 17.9173 11.6023 18.0227C11.7077 18.1282 11.8508 18.1875 12 18.1875Z" fill="white"/>
</svg>
