<svg width="30" height="30" viewBox="0 0 30 30" fill="none" xmlns="http://www.w3.org/2000/svg">
<path fill-rule="evenodd" clip-rule="evenodd" d="M6.42857 21.4286H2.14286V27.8571H6.42857V21.4286ZM17.1429 12.8571H12.8571V27.8571H17.1429V12.8571ZM27.8571 2.14286H23.5714V27.8571H27.8571V2.14286ZM23.5714 0C23.0031 0 22.4581 0.225765 22.0562 0.627628C21.6543 1.02949 21.4286 1.57454 21.4286 2.14286V27.8571C21.4286 28.4255 21.6543 28.9705 22.0562 29.3724C22.4581 29.7742 23.0031 30 23.5714 30H27.8571C28.4255 30 28.9705 29.7742 29.3724 29.3724C29.7742 28.9705 30 28.4255 30 27.8571V2.14286C30 1.57454 29.7742 1.02949 29.3724 0.627628C28.9705 0.225765 28.4255 0 27.8571 0H23.5714ZM10.7143 12.8571C10.7143 12.2888 10.9401 11.7438 11.3419 11.3419C11.7438 10.9401 12.2888 10.7143 12.8571 10.7143H17.1429C17.7112 10.7143 18.2562 10.9401 18.6581 11.3419C19.0599 11.7438 19.2857 12.2888 19.2857 12.8571V27.8571C19.2857 28.4255 19.0599 28.9705 18.6581 29.3724C18.2562 29.7742 17.7112 30 17.1429 30H12.8571C12.2888 30 11.7438 29.7742 11.3419 29.3724C10.9401 28.9705 10.7143 28.4255 10.7143 27.8571V12.8571ZM0 21.4286C0 20.8603 0.225765 20.3152 0.627628 19.9133C1.02949 19.5115 1.57454 19.2857 2.14286 19.2857H6.42857C6.99689 19.2857 7.54194 19.5115 7.9438 19.9133C8.34566 20.3152 8.57143 20.8603 8.57143 21.4286V27.8571C8.57143 28.4255 8.34566 28.9705 7.9438 29.3724C7.54194 29.7742 6.99689 30 6.42857 30H2.14286C1.57454 30 1.02949 29.7742 0.627628 29.3724C0.225765 28.9705 0 28.4255 0 27.8571V21.4286Z" fill="#AAAAAA"/>
</svg>
