<svg width="25" height="19" viewBox="0 0 25 19" fill="none" xmlns="http://www.w3.org/2000/svg">
<path d="M23.75 0H0.95C0.698044 0 0.456408 0.100089 0.278248 0.278249C0.100089 0.456408 0 0.698044 0 0.95V17.1C0 17.6039 0.200178 18.0872 0.556497 18.4435C0.912816 18.7998 1.39609 19 1.9 19H22.8C23.3039 19 23.7872 18.7998 24.1435 18.4435C24.4998 18.0872 24.7 17.6039 24.7 17.1V0.95C24.7 0.698044 24.5999 0.456408 24.4218 0.278249C24.2436 0.100089 24.002 0 23.75 0ZM22.8 17.1H1.9V3.11125L11.7088 12.1006C11.8839 12.2608 12.1126 12.3497 12.35 12.3497C12.5874 12.3497 12.8161 12.2608 12.9912 12.1006L22.8 3.11125V17.1Z" fill="#666666"/>
</svg>
