<svg width="30" height="30" viewBox="0 0 30 30" fill="none" xmlns="http://www.w3.org/2000/svg">
<path d="M14.2031 18.5039C15.4609 17.6683 16.4163 16.45 16.9279 15.0293C17.4395 13.6085 17.4801 12.0608 17.0437 10.6151C16.6073 9.16951 15.7171 7.90278 14.5048 7.00242C13.2925 6.10206 11.8226 5.61591 10.3125 5.61591C8.80242 5.61591 7.33247 6.10206 6.12018 7.00242C4.90789 7.90278 4.01767 9.16951 3.58126 10.6151C3.14485 12.0608 3.18545 13.6085 3.69704 15.0293C4.20863 16.45 5.16403 17.6683 6.42186 18.5039C4.27612 19.293 2.42351 20.7202 1.11326 22.5937C1.01092 22.7327 0.950003 22.8978 0.93756 23.0699C0.925117 23.242 0.961656 23.4142 1.04295 23.5664C1.12328 23.7176 1.24304 23.8443 1.38951 23.933C1.53599 24.0217 1.70374 24.0692 1.87498 24.0703H18.75C18.9212 24.0692 19.089 24.0217 19.2355 23.933C19.3819 23.8443 19.5017 23.7176 19.582 23.5664C19.6633 23.4142 19.6999 23.242 19.6874 23.0699C19.675 22.8978 19.6141 22.7327 19.5117 22.5937C18.2015 20.7202 16.3488 19.293 14.2031 18.5039V18.5039Z" fill="#666666"/>
<path d="M29.0742 22.5938C27.7565 20.7225 25.901 19.2962 23.7539 18.5039C25.0157 17.6715 25.9751 16.454 26.4894 15.0326C27.0036 13.6111 27.0453 12.0616 26.6081 10.6145C26.171 9.16749 25.2784 7.90022 24.0632 7.00123C22.8479 6.10223 21.3749 5.61956 19.8633 5.625C19.2181 5.62842 18.5761 5.71507 17.9531 5.88281C17.8068 5.92676 17.6731 6.00497 17.563 6.11095C17.4529 6.21693 17.3697 6.34762 17.3203 6.49219C17.2731 6.63557 17.2613 6.78822 17.2858 6.93715C17.3103 7.08609 17.3704 7.22692 17.4609 7.34766C18.5208 8.77169 19.1297 10.4806 19.2091 12.254C19.2884 14.0274 18.8346 15.7839 17.9062 17.2969C17.7872 17.4979 17.7465 17.7358 17.7919 17.965C17.8373 18.1942 17.9656 18.3986 18.1523 18.5391C18.5039 18.8125 18.8437 19.0938 19.1719 19.3828L19.2305 19.4414C20.4813 20.5989 21.4961 21.9878 22.2187 23.5313C22.2929 23.6925 22.4119 23.8291 22.5615 23.9247C22.7111 24.0203 22.885 24.0708 23.0625 24.0703H28.3008C28.472 24.0692 28.6398 24.0218 28.7862 23.933C28.9327 23.8443 29.0525 23.7176 29.1328 23.5664C29.2131 23.4145 29.2501 23.2434 29.2398 23.0719C29.2295 22.9003 29.1722 22.7349 29.0742 22.5938V22.5938Z" fill="#666666"/>
</svg>
