<svg width="40" height="40" viewBox="0 0 40 40" fill="none" xmlns="http://www.w3.org/2000/svg">
<path d="M0 6.66667C0 2.98477 2.98477 0 6.66667 0H33.3333C37.0152 0 40 2.98477 40 6.66667V33.3333C40 37.0152 37.0152 40 33.3333 40H6.66667C2.98477 40 0 37.0152 0 33.3333V6.66667Z" fill="white" fill-opacity="0.06"/>
<g clip-path="url(#clip0_1_730)">
<path d="M20 31.6667C20.7736 31.6667 21.5155 31.3594 22.0624 30.8124C22.6094 30.2654 22.9167 29.5235 22.9167 28.75H17.0834C17.0834 29.5235 17.3907 30.2654 17.9376 30.8124C18.4846 31.3594 19.2265 31.6667 20 31.6667Z" fill="white"/>
<path fill-rule="evenodd" clip-rule="evenodd" d="M20.0001 11.1304L18.8378 11.3652C17.5194 11.6338 16.3343 12.3497 15.4831 13.3917C14.6319 14.4338 14.1669 15.7379 14.1667 17.0833C14.1667 17.9992 13.9713 20.2873 13.4974 22.5404C13.264 23.659 12.949 24.8242 12.5305 25.8333H27.4697C27.0511 24.8242 26.7376 23.6604 26.5028 22.5404C26.0288 20.2873 25.8334 17.9992 25.8334 17.0833C25.8329 15.7381 25.3678 14.4343 24.5166 13.3926C23.6654 12.3509 22.4805 11.6352 21.1624 11.3667L20.0001 11.129V11.1304ZM29.0709 25.8333C29.3961 26.4852 29.7724 27.0015 30.2084 27.2917H9.79175C10.2278 27.0015 10.604 26.4852 10.9292 25.8333C12.2417 23.2083 12.7084 18.3667 12.7084 17.0833C12.7084 13.5542 15.2167 10.6083 18.549 9.93605C18.5287 9.73327 18.5511 9.52848 18.6147 9.33488C18.6784 9.14128 18.7819 8.96318 18.9186 8.81205C19.0553 8.66092 19.2222 8.54012 19.4085 8.45745C19.5948 8.37478 19.7963 8.33206 20.0001 8.33206C20.2039 8.33206 20.4054 8.37478 20.5917 8.45745C20.778 8.54012 20.9448 8.66092 21.0815 8.81205C21.2183 8.96318 21.3218 9.14128 21.3854 9.33488C21.4491 9.52848 21.4715 9.73327 21.4511 9.93605C23.0994 10.2713 24.5813 11.1659 25.6456 12.4684C26.71 13.7709 27.2915 15.4013 27.2917 17.0833C27.2917 18.3667 27.7584 23.2083 29.0709 25.8333Z" fill="white"/>
<circle cx="25.8334" cy="14.1667" r="4.16667" fill="#FFAB7B"/>
</g>
<defs>
<clipPath id="clip0_1_730">
<rect width="23.3333" height="23.3333" fill="white" transform="translate(8.33337 8.33334)"/>
</clipPath>
</defs>
</svg>
