<svg width="36" height="36" viewBox="0 0 36 36" fill="none" xmlns="http://www.w3.org/2000/svg">
<path d="M5.625 9V27C5.625 27.5967 5.86205 28.169 6.28401 28.591C6.70597 29.0129 7.27826 29.25 7.875 29.25H30.375C30.6734 29.25 30.9595 29.1315 31.1705 28.9205C31.3815 28.7095 31.5 28.4234 31.5 28.125V12.375C31.5 12.0766 31.3815 11.7905 31.1705 11.5795C30.9595 11.3685 30.6734 11.25 30.375 11.25H7.875C7.27826 11.25 6.70597 11.0129 6.28401 10.591C5.86205 10.169 5.625 9.59674 5.625 9ZM5.625 9C5.625 8.40326 5.86205 7.83097 6.28401 7.40901C6.70597 6.98705 7.27826 6.75 7.875 6.75H27" stroke="#AAAAAA" stroke-width="1.6875" stroke-linecap="round" stroke-linejoin="round"/>
<path d="M25.3125 21.9375C26.2445 21.9375 27 21.182 27 20.25C27 19.318 26.2445 18.5625 25.3125 18.5625C24.3805 18.5625 23.625 19.318 23.625 20.25C23.625 21.182 24.3805 21.9375 25.3125 21.9375Z" fill="#AAAAAA"/>
</svg>
