<svg width="30" height="30" viewBox="0 0 30 30" fill="none" xmlns="http://www.w3.org/2000/svg">
<path d="M15 17.8125C15.7767 17.8125 16.4062 17.1829 16.4062 16.4062C16.4062 15.6296 15.7767 15 15 15C14.2233 15 13.5938 15.6296 13.5938 16.4062C13.5938 17.1829 14.2233 17.8125 15 17.8125Z" fill="#666666"/>
<path d="M24.375 9.375H20.1562V6.09375C20.1562 4.72623 19.613 3.41472 18.646 2.44773C17.679 1.48075 16.3675 0.9375 15 0.9375C13.6325 0.9375 12.321 1.48075 11.354 2.44773C10.387 3.41472 9.84375 4.72623 9.84375 6.09375V9.375H5.625C5.12772 9.375 4.65081 9.57254 4.29917 9.92418C3.94754 10.2758 3.75 10.7527 3.75 11.25V24.375C3.75 24.8723 3.94754 25.3492 4.29917 25.7008C4.65081 26.0525 5.12772 26.25 5.625 26.25H24.375C24.8723 26.25 25.3492 26.0525 25.7008 25.7008C26.0525 25.3492 26.25 24.8723 26.25 24.375V11.25C26.25 10.7527 26.0525 10.2758 25.7008 9.92418C25.3492 9.57254 24.8723 9.375 24.375 9.375ZM15.9375 19.5469V21.5625C15.9375 21.8111 15.8387 22.0496 15.6629 22.2254C15.4871 22.4012 15.2486 22.5 15 22.5C14.7514 22.5 14.5129 22.4012 14.3371 22.2254C14.1613 22.0496 14.0625 21.8111 14.0625 21.5625V19.5469C13.3072 19.3217 12.6582 18.8321 12.2341 18.1678C11.8101 17.5034 11.6393 16.7086 11.7531 15.9287C11.8669 15.1488 12.2576 14.4359 12.8538 13.9204C13.45 13.4049 14.2118 13.1212 15 13.1212C15.7882 13.1212 16.55 13.4049 17.1462 13.9204C17.7424 14.4359 18.1331 15.1488 18.2469 15.9287C18.3607 16.7086 18.1899 17.5034 17.7659 18.1678C17.3418 18.8321 16.6928 19.3217 15.9375 19.5469ZM18.2812 9.375H11.7188V6.09375C11.7188 5.22351 12.0645 4.38891 12.6798 3.77356C13.2952 3.1582 14.1298 2.8125 15 2.8125C15.8702 2.8125 16.7048 3.1582 17.3202 3.77356C17.9355 4.38891 18.2812 5.22351 18.2812 6.09375V9.375Z" fill="#666666"/>
</svg>
