<svg width="24" height="24" viewBox="0 0 24 24" fill="none" xmlns="http://www.w3.org/2000/svg">
<rect width="24" height="24" rx="12" fill="white" fill-opacity="0.15"/>
<path fill-rule="evenodd" clip-rule="evenodd" d="M8.22675 13.8517C8.279 13.7994 8.34107 13.7578 8.40941 13.7294C8.47775 13.7011 8.55101 13.6865 8.625 13.6865C8.69899 13.6865 8.77225 13.7011 8.84059 13.7294C8.90892 13.7578 8.971 13.7994 9.02325 13.8517L12 16.8296L14.9767 13.8517C15.0824 13.7461 15.2256 13.6868 15.375 13.6868C15.5244 13.6868 15.6676 13.7461 15.7732 13.8517C15.8789 13.9574 15.9382 14.1006 15.9382 14.25C15.9382 14.3994 15.8789 14.5426 15.7732 14.6482L12.3982 18.0232C12.346 18.0756 12.2839 18.1172 12.2156 18.1455C12.1472 18.1739 12.074 18.1885 12 18.1885C11.926 18.1885 11.8527 18.1739 11.7844 18.1455C11.7161 18.1172 11.654 18.0756 11.6017 18.0232L8.22675 14.6482C8.17436 14.596 8.1328 14.5339 8.10445 14.4656C8.07609 14.3972 8.06149 14.324 8.06149 14.25C8.06149 14.176 8.07609 14.1027 8.10445 14.0344C8.1328 13.9661 8.17436 13.904 8.22675 13.8517Z" fill="white"/>
<path fill-rule="evenodd" clip-rule="evenodd" d="M12 5.8125C12.1492 5.8125 12.2923 5.87176 12.3977 5.97725C12.5032 6.08274 12.5625 6.22582 12.5625 6.375V16.5C12.5625 16.6492 12.5032 16.7923 12.3977 16.8977C12.2923 17.0032 12.1492 17.0625 12 17.0625C11.8508 17.0625 11.7077 17.0032 11.6023 16.8977C11.4968 16.7923 11.4375 16.6492 11.4375 16.5V6.375C11.4375 6.22582 11.4968 6.08274 11.6023 5.97725C11.7077 5.87176 11.8508 5.8125 12 5.8125Z" fill="white"/>
</svg>
